<svg width="28" height="28" xmlns="http://www.w3.org/2000/svg">
 <!-- Created with Method Draw - http://github.com/duopixel/Method-Draw/ -->

 <g>
  <title>background</title>
  <rect fill="#fff" id="canvas_background" height="30" width="30" y="-1" x="-1"/>
  <g display="none" overflow="visible" y="0" x="0" height="100%" width="100%" id="canvasGrid">
   <rect fill="url(#gridpattern)" stroke-width="0" y="1" x="1" height="480" width="640"/>
  </g>
 </g>
 <g>
  <title>Layer 1</title>
  <g id="svg_6">
   <path fill="#293f55" id="svg_4" d="m14,2.742405c3.004286,0 5.832248,1.173231 7.961696,3.295898c2.122667,2.129449 3.295898,4.957411 3.295898,7.961696s-1.173231,5.832248 -3.295898,7.961696c-2.129449,2.122667 -4.957411,3.295898 -7.961696,3.295898s-5.832248,-1.173231 -7.961696,-3.295898c-2.122667,-2.129449 -3.295898,-4.957411 -3.295898,-7.961696s1.173231,-5.832248 3.295898,-7.961696c2.129449,-2.122667 4.957411,-3.295898 7.961696,-3.295898m0,-2.848307c-7.792154,0 -14.105902,6.313747 -14.105902,14.105902s6.313747,14.105902 14.105902,14.105902s14.105902,-6.313747 14.105902,-14.105902s-6.313747,-14.105902 -14.105902,-14.105902z"/>
   <path fill="#293f55" id="svg_5" d="m21.052951,19.079481l-1.97347,1.97347l-5.079481,-5.079481l-5.079481,5.079481l-1.97347,-1.97347l5.079481,-5.079481l-5.079481,-5.079481l1.97347,-1.97347l5.079481,5.079481l5.079481,-5.079481l1.97347,1.97347l-5.079481,5.079481l5.079481,5.079481z"/>
  </g>
 </g>
</svg>